<svg width="128" height="128" viewBox="0 0 128 128" xmlns="http://www.w3.org/2000/svg"><defs><linearGradient id="a" x1="647" x2="827" y1="369" y2="190" gradientUnits="userSpaceOnUse"><stop stop-color="#0fb18e" offset="0"/><stop stop-color="#00e4bc" offset="1"/></linearGradient></defs><path d="M63.98 1.997c-34.347 0-61.983 27.833-61.983 61.984 0 34.347 27.833 61.983 61.984 61.983 34.347 0 61.983-27.833 61.983-61.983 0-34.348-27.833-61.984-61.983-61.984z" fill="#0fb18e"/><path d="M124.385 124.385l-7.57-27.34-19.839 19.839z" fill="#0fb18c"/><path d="M63.586 64.375H12.953c0-27.833 22.602-50.633 50.633-50.633z" fill="#00e4bc"/><path transform="matrix(.281 0 0 .281 -118.417 10.88)" d="M647 190h180c0 99.1-80.4 180-180 180z" fill="url(#a)"/></svg>